<?xml version="1.0" encoding="UTF-8" standalone="no"?>
<!DOCTYPE svg PUBLIC "-//W3C//DTD SVG 1.1//EN" "http://www.w3.org/Graphics/SVG/1.1/DTD/svg11.dtd">
<svg width="100%" height="100%" viewBox="0 0 500 500" version="1.1" xmlns="http://www.w3.org/2000/svg" xmlns:xlink="http://www.w3.org/1999/xlink" xml:space="preserve" xmlns:serif="http://www.serif.com/" style="fill-rule:evenodd;clip-rule:evenodd;stroke-linejoin:round;stroke-miterlimit:2;">
    <g transform="matrix(1.258648,0,0,1.258648,52.980155,-57.530325)">
        <path d="M171.814,374.977C168.32,389.457 162.121,401.525 153.216,411.182C142.771,422.507 128.963,429.797 111.79,433.05C104.87,434.361 97.403,435.017 89.39,435.017C61.494,435.017 40.219,427.072 25.564,411.182C10.91,395.291 3.583,372.868 3.583,343.913L3.583,144.755C3.583,115.8 10.91,93.377 25.564,77.486C40.219,61.596 61.494,53.651 89.39,53.651C117.286,53.651 138.562,61.596 153.216,77.486C156.21,80.733 158.898,84.252 161.28,88.043L145.134,183.951L120.111,183.951L120.111,141.047C120.111,118.095 110.401,106.619 90.979,106.619C71.558,106.619 61.847,118.095 61.847,141.047L61.847,348.15C61.847,370.75 71.558,382.049 90.979,382.049C100.304,382.049 107.851,379.214 113.178,373.765C114.984,371.917 116.535,369.77 117.813,367.331C118.233,366.52 118.524,365.648 118.676,364.747C122.197,343.955 170.179,58.948 170.179,58.948L249.1,58.948L309.483,429.72L251.219,429.72L240.625,356.095L240.625,357.155L174.648,357.155C174.106,363.454 173.161,369.394 171.814,374.977ZM233.739,306.836L207.785,123.568L206.726,123.568L181.302,306.836L233.739,306.836Z" style="fill:rgb(45,46,37);"/>
    </g>
</svg>
